<?xml version="1.0" encoding="utf-8"?>
<svg xmlns="http://www.w3.org/2000/svg" xmlns:xlink="http://www.w3.org/1999/xlink" style="margin: auto; background: none; display: block; shape-rendering: auto;" width="211px" height="211px" viewBox="0 0 100 100" preserveAspectRatio="xMidYMid">
<g transform="rotate(0 50 50)">
  <rect x="47" y="5.5" rx="3" ry="6.72" width="6" height="21" fill="#141414">
    <animate attributeName="opacity" values="1;0" keyTimes="0;1" dur="0.5714285714285714s" begin="-0.54421768707483s" repeatCount="indefinite"></animate>
  </rect>
</g><g transform="rotate(17.142857142857142 50 50)">
  <rect x="47" y="5.5" rx="3" ry="6.72" width="6" height="21" fill="#141414">
    <animate attributeName="opacity" values="1;0" keyTimes="0;1" dur="0.5714285714285714s" begin="-0.5170068027210885s" repeatCount="indefinite"></animate>
  </rect>
</g><g transform="rotate(34.285714285714285 50 50)">
  <rect x="47" y="5.5" rx="3" ry="6.72" width="6" height="21" fill="#141414">
    <animate attributeName="opacity" values="1;0" keyTimes="0;1" dur="0.5714285714285714s" begin="-0.4897959183673469s" repeatCount="indefinite"></animate>
  </rect>
</g><g transform="rotate(51.42857142857143 50 50)">
  <rect x="47" y="5.5" rx="3" ry="6.72" width="6" height="21" fill="#141414">
    <animate attributeName="opacity" values="1;0" keyTimes="0;1" dur="0.5714285714285714s" begin="-0.46258503401360546s" repeatCount="indefinite"></animate>
  </rect>
</g><g transform="rotate(68.57142857142857 50 50)">
  <rect x="47" y="5.5" rx="3" ry="6.72" width="6" height="21" fill="#141414">
    <animate attributeName="opacity" values="1;0" keyTimes="0;1" dur="0.5714285714285714s" begin="-0.43537414965986393s" repeatCount="indefinite"></animate>
  </rect>
</g><g transform="rotate(85.71428571428571 50 50)">
  <rect x="47" y="5.5" rx="3" ry="6.72" width="6" height="21" fill="#141414">
    <animate attributeName="opacity" values="1;0" keyTimes="0;1" dur="0.5714285714285714s" begin="-0.40816326530612246s" repeatCount="indefinite"></animate>
  </rect>
</g><g transform="rotate(102.85714285714286 50 50)">
  <rect x="47" y="5.5" rx="3" ry="6.72" width="6" height="21" fill="#141414">
    <animate attributeName="opacity" values="1;0" keyTimes="0;1" dur="0.5714285714285714s" begin="-0.38095238095238093s" repeatCount="indefinite"></animate>
  </rect>
</g><g transform="rotate(120 50 50)">
  <rect x="47" y="5.5" rx="3" ry="6.72" width="6" height="21" fill="#141414">
    <animate attributeName="opacity" values="1;0" keyTimes="0;1" dur="0.5714285714285714s" begin="-0.35374149659863946s" repeatCount="indefinite"></animate>
  </rect>
</g><g transform="rotate(137.14285714285714 50 50)">
  <rect x="47" y="5.5" rx="3" ry="6.72" width="6" height="21" fill="#141414">
    <animate attributeName="opacity" values="1;0" keyTimes="0;1" dur="0.5714285714285714s" begin="-0.32653061224489793s" repeatCount="indefinite"></animate>
  </rect>
</g><g transform="rotate(154.28571428571428 50 50)">
  <rect x="47" y="5.5" rx="3" ry="6.72" width="6" height="21" fill="#141414">
    <animate attributeName="opacity" values="1;0" keyTimes="0;1" dur="0.5714285714285714s" begin="-0.29931972789115646s" repeatCount="indefinite"></animate>
  </rect>
</g><g transform="rotate(171.42857142857142 50 50)">
  <rect x="47" y="5.5" rx="3" ry="6.72" width="6" height="21" fill="#141414">
    <animate attributeName="opacity" values="1;0" keyTimes="0;1" dur="0.5714285714285714s" begin="-0.272108843537415s" repeatCount="indefinite"></animate>
  </rect>
</g><g transform="rotate(188.57142857142858 50 50)">
  <rect x="47" y="5.5" rx="3" ry="6.72" width="6" height="21" fill="#141414">
    <animate attributeName="opacity" values="1;0" keyTimes="0;1" dur="0.5714285714285714s" begin="-0.24489795918367346s" repeatCount="indefinite"></animate>
  </rect>
</g><g transform="rotate(205.71428571428572 50 50)">
  <rect x="47" y="5.5" rx="3" ry="6.72" width="6" height="21" fill="#141414">
    <animate attributeName="opacity" values="1;0" keyTimes="0;1" dur="0.5714285714285714s" begin="-0.21768707482993196s" repeatCount="indefinite"></animate>
  </rect>
</g><g transform="rotate(222.85714285714286 50 50)">
  <rect x="47" y="5.5" rx="3" ry="6.72" width="6" height="21" fill="#141414">
    <animate attributeName="opacity" values="1;0" keyTimes="0;1" dur="0.5714285714285714s" begin="-0.19047619047619047s" repeatCount="indefinite"></animate>
  </rect>
</g><g transform="rotate(240 50 50)">
  <rect x="47" y="5.5" rx="3" ry="6.72" width="6" height="21" fill="#141414">
    <animate attributeName="opacity" values="1;0" keyTimes="0;1" dur="0.5714285714285714s" begin="-0.16326530612244897s" repeatCount="indefinite"></animate>
  </rect>
</g><g transform="rotate(257.14285714285717 50 50)">
  <rect x="47" y="5.5" rx="3" ry="6.72" width="6" height="21" fill="#141414">
    <animate attributeName="opacity" values="1;0" keyTimes="0;1" dur="0.5714285714285714s" begin="-0.1360544217687075s" repeatCount="indefinite"></animate>
  </rect>
</g><g transform="rotate(274.2857142857143 50 50)">
  <rect x="47" y="5.5" rx="3" ry="6.72" width="6" height="21" fill="#141414">
    <animate attributeName="opacity" values="1;0" keyTimes="0;1" dur="0.5714285714285714s" begin="-0.10884353741496598s" repeatCount="indefinite"></animate>
  </rect>
</g><g transform="rotate(291.42857142857144 50 50)">
  <rect x="47" y="5.5" rx="3" ry="6.72" width="6" height="21" fill="#141414">
    <animate attributeName="opacity" values="1;0" keyTimes="0;1" dur="0.5714285714285714s" begin="-0.08163265306122448s" repeatCount="indefinite"></animate>
  </rect>
</g><g transform="rotate(308.57142857142856 50 50)">
  <rect x="47" y="5.5" rx="3" ry="6.72" width="6" height="21" fill="#141414">
    <animate attributeName="opacity" values="1;0" keyTimes="0;1" dur="0.5714285714285714s" begin="-0.05442176870748299s" repeatCount="indefinite"></animate>
  </rect>
</g><g transform="rotate(325.7142857142857 50 50)">
  <rect x="47" y="5.5" rx="3" ry="6.72" width="6" height="21" fill="#141414">
    <animate attributeName="opacity" values="1;0" keyTimes="0;1" dur="0.5714285714285714s" begin="-0.027210884353741496s" repeatCount="indefinite"></animate>
  </rect>
</g><g transform="rotate(342.85714285714283 50 50)">
  <rect x="47" y="5.5" rx="3" ry="6.72" width="6" height="21" fill="#141414">
    <animate attributeName="opacity" values="1;0" keyTimes="0;1" dur="0.5714285714285714s" begin="0s" repeatCount="indefinite"></animate>
  </rect>
</g>
<!-- [ldio] generated by https://loading.io/ --></svg>